<svg xmlns="http://www.w3.org/2000/svg" width="32" height="32" viewBox="0 0 32 32">
  <g id="ico_twitter" transform="translate(-167 -93)">
    <rect id="사각형_114" data-name="사각형 114" width="32" height="32" transform="translate(167 93)" fill="#fff"/>
    <path id="패스_25" data-name="패스 25" d="M15.766,333.057a6.413,6.413,0,0,1-1.856.509,3.244,3.244,0,0,0,1.421-1.787,6.469,6.469,0,0,1-2.052.784,3.235,3.235,0,0,0-5.507,2.948,9.176,9.176,0,0,1-6.661-3.376,3.237,3.237,0,0,0,1,4.315,3.222,3.222,0,0,1-1.463-.4c0,.013,0,.028,0,.04a3.233,3.233,0,0,0,2.592,3.169,3.247,3.247,0,0,1-1.459.056A3.235,3.235,0,0,0,4.8,341.553a6.481,6.481,0,0,1-4.012,1.384,6.53,6.53,0,0,1-.771-.045,9.153,9.153,0,0,0,4.953,1.451,9.131,9.131,0,0,0,9.194-9.194c0-.14,0-.28-.01-.419A6.552,6.552,0,0,0,15.766,333.057Z" transform="translate(174.984 -228.542)" fill="#55acee"/>
  </g>
</svg>
