<svg xmlns="http://www.w3.org/2000/svg" width="32" height="32" viewBox="0 0 32 32">
  <g id="ico_vlive" transform="translate(-96.094 -173.671)">
    <rect id="사각형_128" data-name="사각형 128" width="32" height="32" transform="translate(96.094 173.671)" fill="#fff"/>
    <path id="패스_31" data-name="패스 31" d="M108.127,180.988c.062-.166.105-.286.152-.406a3.144,3.144,0,0,1,5.964,1.986c-.119.425-.24.85-.37,1.308a2.112,2.112,0,0,1,.566.244c.369.315.7.672,1.056,1.006.1.1.219.237.337.245a2.72,2.72,0,0,1,2.684,3.536c-.176.759-.414,1.505-.653,2.248a2.638,2.638,0,0,1-1.152,1.477.926.926,0,0,0-.311.456,6.784,6.784,0,0,1-6.059,4.7,6.971,6.971,0,0,1-7.2-3.527,6.207,6.207,0,0,1-.816-3.1c-.013-.807,0-1.614-.006-2.421a3.253,3.253,0,0,1,.637-1.971.7.7,0,0,0,.076-.525c-.316-1.181-.659-2.355-.991-3.533a3.148,3.148,0,1,1,5.99-1.935C108.055,180.832,108.083,180.887,108.127,180.988Zm1.511,9.924a3.03,3.03,0,0,1,.387,1.9.479.479,0,0,1-.523.509.47.47,0,0,1-.488-.5c-.007-.156,0-.313-.005-.469a1.389,1.389,0,0,0-1.492-1.488c-.444-.011-.681-.2-.669-.53s.233-.486.667-.488c.833,0,1.667.006,2.5,0a1.067,1.067,0,0,0,1.2-1.13c-.007-.682-.437-1.076-1.2-1.078q-2.285-.008-4.571,0a1,1,0,0,0-1.118,1.107c-.006.768,0,1.537,0,2.3a4.451,4.451,0,0,0,.688,2.407,5.286,5.286,0,0,0,5.937,2.228,4.719,4.719,0,0,0,3.574-3.365.464.464,0,0,0-.069-.4,4.9,4.9,0,0,0-.68-.431c-.115.1-.218.2-.33.287a2.03,2.03,0,0,1-3.04-.566A.557.557,0,0,0,109.638,190.912Zm1.329-4.235a.09.09,0,0,0,.03-.04c.454-1.588.92-3.172,1.354-4.766a1.08,1.08,0,0,0-.678-1.264,1.118,1.118,0,0,0-1.375.424,2.336,2.336,0,0,0-.255.607c-.349,1.172-.687,2.347-1.031,3.52-.169.575-.453.848-.878.852s-.729-.274-.906-.87c-.03-.1-.057-.2-.087-.3-.329-1.123-.652-2.249-.989-3.37a1.179,1.179,0,0,0-1.45-.911,1.16,1.16,0,0,0-.758,1.526c.388,1.391.792,2.777,1.175,4.169a.4.4,0,0,0,.461.344c1.366-.014,2.733-.012,4.1,0C110.092,186.6,110.505,186.647,110.967,186.677Zm.246,3.884a1.008,1.008,0,0,0,1,.627.962.962,0,0,0,.911-.685q.56-1.8,1.045-3.63a.918.918,0,0,0-.377-1,.958.958,0,0,0-1.028-.126,1.867,1.867,0,0,0-.73,2.017,2.693,2.693,0,0,1,.2,1.016A2.244,2.244,0,0,1,111.213,190.561Zm5.544-2.074a1.013,1.013,0,0,0-.767-1.127.933.933,0,0,0-1.057.669c-.2.605-.368,1.22-.533,1.835a.931.931,0,0,0,.543,1.121.839.839,0,0,0,1.13-.407C116.37,189.848,116.569,189.078,116.757,188.487Z" transform="translate(2 1.788)" fill="#1fcfff"/>
  </g>
</svg>
