<svg xmlns="http://www.w3.org/2000/svg" width="16" height="16" viewBox="0 0 16 16">
  <g id="ico_small_tictok" transform="translate(-251.136 -61.517)">
    <rect id="사각형_154" data-name="사각형 154" width="16" height="16" transform="translate(251.136 61.517)" fill="none"/>
    <path id="패스_47" data-name="패스 47" d="M277.858,87.462c.68-1.358.488-2.884.488-4.352V80.945a4.965,4.965,0,0,0,3.206,1.011V80.082a3.159,3.159,0,0,1-1.73-.942A3,3,0,0,1,278.368,77h-1.6v5.323c0,1.291.048,2.584-.048,3.873a2.727,2.727,0,1,1-2.008-2.476V81.864a3.991,3.991,0,1,0-.586,7.926A4.157,4.157,0,0,0,277.858,87.462Z" transform="translate(-16.936 -13.836)" fill="#fff"/>
  </g>
</svg>
