<svg xmlns="http://www.w3.org/2000/svg" width="16" height="16" viewBox="0 0 16 16">
  <g id="ico_small_twitter" transform="translate(-138 -304)">
    <rect id="사각형_130" data-name="사각형 130" width="16" height="16" transform="translate(138 304)" fill="none"/>
    <path id="패스_33" data-name="패스 33" d="M320.629,436.662a4.89,4.89,0,0,1-1.414.387,2.471,2.471,0,0,0,1.083-1.362,4.93,4.93,0,0,1-1.563.6,2.465,2.465,0,0,0-4.2,2.246,6.991,6.991,0,0,1-5.075-2.572,2.466,2.466,0,0,0,.762,3.287,2.455,2.455,0,0,1-1.115-.308c0,.01,0,.021,0,.031a2.463,2.463,0,0,0,1.975,2.414,2.474,2.474,0,0,1-1.111.042,2.465,2.465,0,0,0,2.3,1.71,4.966,4.966,0,0,1-3.644,1.02,7,7,0,0,0,10.779-5.9c0-.107,0-.213-.007-.319A5,5,0,0,0,320.629,436.662Z" transform="translate(-168.629 -128.508)" fill="#fff"/>
  </g>
</svg>
