<svg xmlns="http://www.w3.org/2000/svg" xmlns:xlink="http://www.w3.org/1999/xlink" width="32" height="32" viewBox="0 0 32 32">
  <defs>
    <linearGradient id="linear-gradient" x1="1.125" y1="0.2" x2="0.5" y2="1" gradientUnits="objectBoundingBox">
      <stop offset="0" stop-color="#9c27b0"/>
      <stop offset="0.498" stop-color="#f44336"/>
      <stop offset="1" stop-color="#ffc107"/>
    </linearGradient>
    <linearGradient id="linear-gradient-2" x1="1" x2="0.5" y2="1" gradientUnits="objectBoundingBox">
      <stop offset="0" stop-color="#9c27b0"/>
      <stop offset="0.477" stop-color="#f44336"/>
      <stop offset="1" stop-color="#ffc107"/>
    </linearGradient>
    <linearGradient id="linear-gradient-3" x1="-12.08" y1="15.925" x2="-12.058" y2="15.947" gradientUnits="objectBoundingBox">
      <stop offset="0" stop-color="#9c27b0"/>
      <stop offset="0.507" stop-color="#f44336"/>
      <stop offset="0.99" stop-color="#9c27b0"/>
      <stop offset="1" stop-color="#9c27b0"/>
    </linearGradient>
  </defs>
  <g id="ico_insta" transform="translate(6 6)">
    <rect id="사각형_113" data-name="사각형 113" width="32" height="32" transform="translate(-6 -6)" fill="#fff"/>
    <path id="패스_53" data-name="패스 53" d="M13.75,0H6.25A6.251,6.251,0,0,0,0,6.25v7.5A6.251,6.251,0,0,0,6.25,20h7.5A6.251,6.251,0,0,0,20,13.75V6.25A6.251,6.251,0,0,0,13.75,0Zm4.375,13.75a4.38,4.38,0,0,1-4.375,4.375H6.25A4.38,4.38,0,0,1,1.875,13.75V6.25A4.38,4.38,0,0,1,6.25,1.875h7.5A4.38,4.38,0,0,1,18.125,6.25Z" fill="url(#linear-gradient)"/>
    <path id="패스_54" data-name="패스 54" d="M133,128a5,5,0,1,0,5,5A5,5,0,0,0,133,128Zm0,8.125A3.125,3.125,0,1,1,136.125,133,3.129,3.129,0,0,1,133,136.125Z" transform="translate(-123 -123)" fill="url(#linear-gradient-2)"/>
    <circle id="타원_44" data-name="타원 44" cx="1" cy="1" r="1" transform="translate(14.709 3.959)" fill="url(#linear-gradient-3)"/>
  </g>
</svg>
