<svg xmlns="http://www.w3.org/2000/svg" xmlns:xlink="http://www.w3.org/1999/xlink" width="32" height="32" viewBox="0 0 32 32">
  <defs>
    <clipPath id="clip-path">
      <rect id="사각형_38" data-name="사각형 38" width="25" height="25" transform="translate(0.333 0.333)" fill="none"/>
    </clipPath>
  </defs>
  <g id="ico_setting" transform="translate(-104 -717)">
    <rect id="사각형_33" data-name="사각형 33" width="32" height="32" transform="translate(104 717)" fill="#fff"/>
    <g id="그룹_10" data-name="그룹 10" transform="translate(107.667 720.667)">
      <g id="그룹_7" data-name="그룹 7" transform="translate(0 0)">
        <g id="그룹_6" data-name="그룹 6" clip-path="url(#clip-path)">
          <path id="패스_12" data-name="패스 12" d="M67.383,68.286a6.307,6.307,0,0,1-.455,1.1l-.19.356L68.432,72a.126.126,0,0,1-.017.022L66.932,73.5a.115.115,0,0,1-.02.017l-2.262-1.689-.356.19a6.3,6.3,0,0,1-1.1.461l-.386.124-.4,2.885c-.006,0-.014.081-.024.081h-2.1c-.009,0-.017-.079-.024-.081l-.4-2.863-.387-.143a6.321,6.321,0,0,1-1.1-.462l-.357-.194L55.753,73.52a.137.137,0,0,1-.017-.015l-1.483-1.484A.149.149,0,0,1,54.237,72l1.7-2.263-.193-.358a6.179,6.179,0,0,1-.454-1.1l-.13-.385-2.836-.4c0-.009-.107-.019-.107-.03v-2.1c0-.011.106-.022.107-.03l2.815-.4.133-.385a6.346,6.346,0,0,1,.462-1.1l.193-.357-1.691-2.261a.138.138,0,0,1,.018-.022l1.483-1.483a.14.14,0,0,1,.021-.017l2.262,1.69.357-.188a6.282,6.282,0,0,1,1.1-.457l.386-.116.4-2.87c.006,0,.015-.051.024-.051h2.1c.009,0,.017.048.024.05l.4,2.841.386.134a6.306,6.306,0,0,1,1.1.463l.357.193,2.265-1.688.017.015,1.482,1.483a.13.13,0,0,1,.017.02l-1.695,2.263.192.357a6.309,6.309,0,0,1,.454,1.1l.131.385,2.835.4c0,.009.107.019.107.031v2.1c0,.012-.106.022-.107.031l-2.815.4ZM70.489,64.1l-2.051-.3c-.07-.193-.137-.382-.219-.562l1.263-1.678a1.262,1.262,0,0,0-.171-1.634l-1.481-1.483a1.343,1.343,0,0,0-.941-.4,1.148,1.148,0,0,0-.692.229l-1.676,1.259c-.185-.085-.373-.153-.562-.224l-.3-2.023a1.2,1.2,0,0,0-1.279-.963h-2.1a1.2,1.2,0,0,0-1.279.963l-.3,2.017c-.19.071-.379.14-.564.226l-1.675-1.257a1.149,1.149,0,0,0-.692-.229,1.345,1.345,0,0,0-.943.4L53.35,59.923a1.264,1.264,0,0,0-.176,1.634l1.251,1.676c-.085.184-.168.373-.238.564l-2.008.3a1.217,1.217,0,0,0-.979,1.279v2.1a1.217,1.217,0,0,0,.978,1.28l2.051.3c.07.193.136.382.219.562l-1.263,1.678a1.262,1.262,0,0,0,.17,1.634L54.836,74.4a1.342,1.342,0,0,0,.941.4,1.149,1.149,0,0,0,.692-.227l1.676-1.255c.184.085.373.161.563.231l.3,2.038a1.226,1.226,0,0,0,1.279.994h2.1a1.227,1.227,0,0,0,1.279-.994l.3-2.047c.188-.07.377-.139.564-.226L66.2,74.576a1.146,1.146,0,0,0,.692.229,1.348,1.348,0,0,0,.943-.4l1.483-1.483a1.264,1.264,0,0,0,.176-1.635l-1.251-1.676c.086-.186.169-.375.238-.564l2.009-.3a1.217,1.217,0,0,0,.978-1.279v-2.1A1.217,1.217,0,0,0,70.489,64.1Z" transform="translate(-48.667 -53.533)"/>
        </g>
      </g>
      <g id="그룹_9" data-name="그룹 9" transform="translate(0 0)">
        <g id="그룹_8" data-name="그룹 8" clip-path="url(#clip-path)">
          <path id="패스_13" data-name="패스 13" d="M171.189,170.565a3.383,3.383,0,1,0,3.383,3.383A3.387,3.387,0,0,0,171.189,170.565Zm0,7.8a4.415,4.415,0,1,1,4.415-4.416A4.42,4.42,0,0,1,171.189,178.364Z" transform="translate(-158.522 -161.145)"/>
        </g>
      </g>
    </g>
  </g>
</svg>
