<svg id="ico_campaign" xmlns="http://www.w3.org/2000/svg" width="24" height="24" viewBox="0 0 24 24">
  <rect id="사각형_33" data-name="사각형 33" width="24" height="24" fill="#fff"/>
  <g id="다각형_2" data-name="다각형 2" transform="translate(6.27 4.386)" fill="#fff" stroke-linecap="round" stroke-linejoin="round">
    <path d="M 12.80203628540039 15.57939434051514 L 12.06351566314697 15.57939434051514 L -4.075774995726533e-06 15.57939434051514 L -0.7385240793228149 15.57939434051514 L -0.4642440676689148 14.89369487762451 L 5.567515850067139 -0.1856952160596848 L 6.031755924224854 -1.346285223960876 L 6.495995998382568 -0.1856952160596848 L 12.52775573730469 14.89369487762451 L 12.80203628540039 15.57939434051514 Z" stroke="none"/>
    <path d="M 6.031755924224854 -4.76837158203125e-06 L -3.814697265625e-06 15.07938480377197 L 12.06351566314697 15.07938480377197 L 6.031755924224854 -4.76837158203125e-06 M 6.031755924224854 -1.000005722045898 C 6.440655708312988 -1.000005722045898 6.808365821838379 -0.7510547637939453 6.960236072540283 -0.3713951110839844 L 12.9919958114624 14.70799446105957 C 13.11522579193115 15.01608467102051 13.07761573791504 15.36524486541748 12.89158630371094 15.6400146484375 C 12.70555591583252 15.91478443145752 12.39533615112305 16.07938385009766 12.06351566314697 16.07938385009766 L -3.814697265625e-06 16.07938385009766 C -0.3318243026733398 16.07938385009766 -0.6420440673828125 15.91478443145752 -0.8280744552612305 15.6400146484375 C -1.014103889465332 15.36524486541748 -1.051713943481445 15.01608467102051 -0.9284839630126953 14.70799446105957 L 5.103275775909424 -0.3713951110839844 C 5.255146026611328 -0.7510547637939453 5.622856140136719 -1.000005722045898 6.031755924224854 -1.000005722045898 Z" stroke="none" fill="#333"/>
  </g>
  <line id="선_10" data-name="선 10" y1="2" x2="10" transform="translate(6.5 15.5)" fill="none" stroke="#333" stroke-linecap="round" stroke-width="1"/>
  <line id="선_13" data-name="선 13" y1="1.15" x2="5.187" transform="translate(9.313 9.5)" fill="none" stroke="#333" stroke-linecap="round" stroke-width="1"/>
  <g id="타원_7" data-name="타원 7" transform="translate(9.505 2.535)" fill="#fff" stroke="#333" stroke-width="1">
    <circle cx="2.5" cy="2.5" r="2.5" stroke="none"/>
    <circle cx="2.5" cy="2.5" r="2" fill="none"/>
  </g>
  <line id="선_14" data-name="선 14" y1="1" x2="7" transform="matrix(0.996, -0.087, 0.087, 0.996, 8.475, 12.807)" fill="none" stroke="#333" stroke-linecap="round" stroke-width="1"/>
</svg>
