<svg xmlns="http://www.w3.org/2000/svg" width="16" height="16" viewBox="0 0 16 16">
  <g id="ico_small_tictok" transform="translate(-251.136 -61.517)">
    <rect id="사각형_154" data-name="사각형 154" width="16" height="16" transform="translate(251.136 61.517)" fill="none"/>
    <path id="패스_41" data-name="패스 41" d="M485.869,79.139a3.287,3.287,0,0,1-.8-2.136h-.657A3,3,0,0,0,485.869,79.139Z" transform="translate(-222.983 -13.836)" fill="#df2e54"/>
    <path id="패스_42" data-name="패스 42" d="M317.368,212.386a1.906,1.906,0,0,0-.8,3.637,1.906,1.906,0,0,1,2.092-2.981v-2.384a4.284,4.284,0,0,0-.586-.04l-.122,0v1.859A1.9,1.9,0,0,0,317.368,212.386Z" transform="translate(-60.174 -142.591)" fill="#df2e54"/>
    <path id="패스_43" data-name="패스 43" d="M315.074,161.665v1.874a4.965,4.965,0,0,1-3.206-1.011v2.166c0,1.468.191,2.993-.488,4.352a4.157,4.157,0,0,1-3.728,2.327,4.225,4.225,0,0,1-2.273-.659,4.231,4.231,0,0,0,2.98,1.222,4.156,4.156,0,0,0,3.728-2.327c.68-1.358.488-2.884.488-4.352v-2.166a4.965,4.965,0,0,0,3.206,1.011v-2.339A4.979,4.979,0,0,1,315.074,161.665Z" transform="translate(-50.458 -95.419)" fill="#df2e54"/>
    <path id="패스_44" data-name="패스 44" d="M526.137,136.692v-.465a4.013,4.013,0,0,1-1.73-.477A3.159,3.159,0,0,0,526.137,136.692Z" transform="translate(-261.521 -70.446)" fill="#2ab0ba"/>
    <path id="패스_45" data-name="패스 45" d="M251.844,199.939a4.245,4.245,0,0,1,4.124-4.243v-.525a4.246,4.246,0,0,0-2.859,7.791A4.232,4.232,0,0,1,251.844,199.939Z" transform="translate(1.812 -127.668)" fill="#1fafb9"/>
    <path id="패스_46" data-name="패스 46" d="M347.422,73.083a1.9,1.9,0,0,0,1.887-1.808c.1-1.289.048-2.582.048-3.873V62.08h1.6a2.918,2.918,0,0,1-.051-.563h-2.253V66.84c0,1.291.048,2.584-.048,3.873a1.892,1.892,0,0,1-2.685,1.632A1.9,1.9,0,0,0,347.422,73.083Z" transform="translate(-89.521 1.087)" fill="#1fafb9"/>
    <path id="패스_47" data-name="패스 47" d="M277.858,87.462c.68-1.358.488-2.884.488-4.352V80.945a4.965,4.965,0,0,0,3.206,1.011V80.082a3.159,3.159,0,0,1-1.73-.942A3,3,0,0,1,278.368,77h-1.6v5.323c0,1.291.048,2.584-.048,3.873a2.727,2.727,0,1,1-2.008-2.476V81.864a3.991,3.991,0,1,0-.586,7.926A4.157,4.157,0,0,0,277.858,87.462Z" transform="translate(-16.936 -13.836)" fill="#fff"/>
  </g>
</svg>
