<svg xmlns="http://www.w3.org/2000/svg" width="32" height="32" viewBox="0 0 32 32">
  <g id="ico_youtube" transform="translate(6 -56)">
    <rect id="사각형_127" data-name="사각형 127" width="32" height="32" transform="translate(-6 56)" fill="#fff"/>
    <path id="패스_28" data-name="패스 28" d="M19.8,67.238a4.809,4.809,0,0,0-.795-2.119,2.759,2.759,0,0,0-2-.9C14.2,64,10,64,10,64H10s-4.2,0-7,.217a2.76,2.76,0,0,0-2,.9A4.817,4.817,0,0,0,.2,67.238,34.366,34.366,0,0,0,0,70.69v1.618a34.353,34.353,0,0,0,.2,3.453,4.8,4.8,0,0,0,.795,2.117A3.271,3.271,0,0,0,3.2,78.79C4.8,78.954,10,79,10,79s4.2-.007,7-.222a2.771,2.771,0,0,0,2-.9,4.808,4.808,0,0,0,.795-2.117,34.37,34.37,0,0,0,.2-3.453V70.691A34.37,34.37,0,0,0,19.8,67.238Z" fill="#e02f2f"/>
    <path id="패스_29" data-name="패스 29" d="M192,160v7.5l6.252-3.751Z" transform="translate(-184.498 -92.249)" fill="#fff"/>
  </g>
</svg>
