<svg xmlns="http://www.w3.org/2000/svg" width="16" height="16" viewBox="0 0 16 16">
  <g id="ico_small_youtube" transform="translate(-6 -65)">
    <rect id="사각형_153" data-name="사각형 153" width="16" height="16" transform="translate(6 65)" fill="none"/>
    <path id="패스_28" data-name="패스 28" d="M13.86,66.267a3.366,3.366,0,0,0-.556-1.483,1.931,1.931,0,0,0-1.4-.632C9.942,64,7,64,7,64H7s-2.939,0-4.9.152a1.932,1.932,0,0,0-1.4.632A3.372,3.372,0,0,0,.14,66.267,24.056,24.056,0,0,0,0,68.683v1.133a24.047,24.047,0,0,0,.14,2.417A3.36,3.36,0,0,0,.7,73.715a2.289,2.289,0,0,0,1.544.639c1.12.115,4.76.15,4.76.15s2.942-.005,4.9-.155a1.94,1.94,0,0,0,1.4-.633,3.365,3.365,0,0,0,.556-1.482A24.059,24.059,0,0,0,14,69.816V68.684A24.059,24.059,0,0,0,13.86,66.267Z" transform="translate(7 3.748)" fill="#fff"/>
    <path id="패스_29" data-name="패스 29" d="M192,160v5.252l4.376-2.626Z" transform="translate(-179.748 -89.626)" fill="#ff8b50"/>
  </g>
</svg>
