<svg xmlns="http://www.w3.org/2000/svg" width="16" height="16" viewBox="0 0 16 16">
  <g id="ico_small_instagram" transform="translate(-112 -305)">
    <rect id="사각형_129" data-name="사각형 129" width="16" height="16" transform="translate(112 305)" fill="none"/>
    <path id="패스_32" data-name="패스 32" d="M616.406,425.651a2,2,0,1,1,2,2,2,2,0,0,1-2-2m-1.081,0a3.081,3.081,0,1,0,3.081-3.081,3.081,3.081,0,0,0-3.081,3.081m5.564-3.2a.72.72,0,1,0,.72-.72.72.72,0,0,0-.72.72m-4.907,8.087a3.316,3.316,0,0,1-1.114-.206,1.988,1.988,0,0,1-1.139-1.139,3.324,3.324,0,0,1-.207-1.114c-.029-.633-.035-.823-.035-2.424s.006-1.792.035-2.425a3.324,3.324,0,0,1,.207-1.114,1.987,1.987,0,0,1,1.139-1.139,3.318,3.318,0,0,1,1.114-.207c.633-.029.823-.035,2.424-.035s1.792.006,2.425.035a3.319,3.319,0,0,1,1.114.207,1.987,1.987,0,0,1,1.139,1.139,3.322,3.322,0,0,1,.207,1.114c.029.633.035.822.035,2.425s-.006,1.792-.035,2.424a3.322,3.322,0,0,1-.207,1.114,1.988,1.988,0,0,1-1.139,1.139,3.316,3.316,0,0,1-1.114.206c-.633.029-.822.035-2.425.035s-1.792-.006-2.424-.035m-.049-10.848a4.4,4.4,0,0,0-1.457.279,3.069,3.069,0,0,0-1.755,1.755,4.4,4.4,0,0,0-.279,1.456c-.029.64-.036.844-.036,2.474s.007,1.834.036,2.474a4.393,4.393,0,0,0,.279,1.456,3.069,3.069,0,0,0,1.755,1.755,4.406,4.406,0,0,0,1.457.279c.64.029.844.036,2.474.036s1.834-.007,2.474-.036a4.406,4.406,0,0,0,1.456-.279,3.068,3.068,0,0,0,1.755-1.755,4.395,4.395,0,0,0,.279-1.456c.029-.64.036-.844.036-2.474s-.007-1.834-.036-2.474a4.4,4.4,0,0,0-.279-1.456,3.068,3.068,0,0,0-1.755-1.755,4.4,4.4,0,0,0-1.456-.279c-.64-.029-.844-.036-2.474-.036s-1.834.007-2.474.036" transform="translate(-499.406 -112.651)" fill="#fff"/>
  </g>
</svg>
