<svg id="ico_bgtube" xmlns="http://www.w3.org/2000/svg" width="24" height="24" viewBox="0 0 24 24">
  <rect id="사각형_58" data-name="사각형 58" width="24" height="24" fill="#fff"/>
  <g id="타원_19" data-name="타원 19" transform="translate(2 3)" fill="#fff" stroke="#333" stroke-width="1">
    <circle cx="10" cy="10" r="10" stroke="none"/>
    <circle cx="10" cy="10" r="9.5" fill="none"/>
  </g>
  <g id="다각형_3" data-name="다각형 3" transform="translate(14.5 10.5) rotate(90)" fill="#fff" stroke-linecap="round" stroke-linejoin="round">
    <path d="M 5.854919910430908 4.944442272186279 L 5 4.944442272186279 L 0 4.944442272186279 L -0.8549200296401978 4.944442272186279 L -0.4357900023460388 4.199312210083008 L 2.064209938049316 -0.2451276779174805 L 2.5 -1.01985764503479 L 2.935790061950684 -0.2451276779174805 L 5.435790061950684 4.199312210083008 L 5.854919910430908 4.944442272186279 Z" stroke="none"/>
    <path d="M 2.5 2.384185791015625e-06 L 0 4.444442272186279 L 5 4.444442272186279 L 2.5 2.384185791015625e-06 M 2.5 -0.999997615814209 C 2.861269950866699 -0.999997615814209 3.194459915161133 -0.8051376342773438 3.371580123901367 -0.490257740020752 L 5.871580123901367 3.954182386398315 C 6.045750141143799 4.263822555541992 6.04256010055542 4.642622470855713 5.863210201263428 4.949292182922363 C 5.683859825134277 5.25595235824585 5.355259895324707 5.444442272186279 5 5.444442272186279 L 0 5.444442272186279 C -0.355259895324707 5.444442272186279 -0.6838598251342773 5.25595235824585 -0.8632102012634277 4.949292182922363 C -1.04256010055542 4.642622470855713 -1.045750141143799 4.263822555541992 -0.8715801239013672 3.954182386398315 L 1.628420114517212 -0.490257740020752 C 1.805540084838867 -0.8051376342773438 2.138730049133301 -0.999997615814209 2.5 -0.999997615814209 Z" stroke="none" fill="#333"/>
  </g>
</svg>
